<svg xmlns="http://www.w3.org/2000/svg" width="1996.064" height="189.786" viewBox="0 0 1996.064 189.786"><defs><style>.a{fill:#fff;}</style></defs><g transform="translate(28.757 -3919.805)"><path class="a" d="M568.71,112.53a28.84,28.84,0,0,1-19-4.94,2.37,2.37,0,0,0-1.9-.37l-6.39,2.19a.53.53,0,0,1-.62-.68l2.42-5.78a2.47,2.47,0,0,0-.31-2.19,27.93,27.93,0,1,1,25.83,11.77Z" transform="translate(9.004 3958.946)"/><path class="a" d="M679,111a28.84,28.84,0,0,1-19-5,2.39,2.39,0,0,0-1.89-.37l-6.4,2.2a.53.53,0,0,1-.62-.68l2.43-5.78a2.53,2.53,0,0,0-.31-2.19A27.913,27.913,0,1,1,679,111Z" transform="translate(9.004 3958.946)"/><path class="a" d="M630.65,177.67a28.78,28.78,0,0,1-19-4.94,2.41,2.41,0,0,0-1.9-.37l-6.39,2.2a.54.54,0,0,1-.62-.68l2.42-5.79a2.45,2.45,0,0,0-.31-2.18,27.94,27.94,0,1,1,25.83,11.76Z" transform="translate(-6.996 3901.946)"/><path class="a" d="M720.5,242.53a28.78,28.78,0,0,1-19-4.94,2.39,2.39,0,0,0-1.89-.37l-6.4,2.2a.53.53,0,0,1-.62-.68L695,233a2.51,2.51,0,0,0-.31-2.18,27.933,27.933,0,1,1,25.82,11.76Z" transform="translate(52.004 3845.946)"/><path class="a" d="M565.93,173.41a28.85,28.85,0,0,1-19-4.94,2.39,2.39,0,0,0-1.89-.37l-6.39,2.19a.53.53,0,0,1-.62-.68l2.42-5.78a2.51,2.51,0,0,0-.31-2.18,27.94,27.94,0,1,1,25.82,11.76Z" transform="translate(86.004 3914.946)"/><path class="a" d="M621.4,255.08a28.85,28.85,0,0,1-19-4.94,2.38,2.38,0,0,0-1.89-.37L594.09,252a.53.53,0,0,1-.62-.68l2.42-5.78a2.51,2.51,0,0,0-.31-2.18,27.94,27.94,0,1,1,25.82,11.76Z" transform="translate(-181.996 3822.946)"/><path class="a" d="M723.85,164.4a28.84,28.84,0,0,1-19-5,2.45,2.45,0,0,0-1.9-.37l-6.39,2.2a.53.53,0,0,1-.62-.68l2.42-5.78a2.47,2.47,0,0,0-.31-2.19,27.9,27.9,0,1,1,25.8,11.81Z" transform="translate(-228.996 3923.946)"/><path class="a" d="M803.85,209.8a28.85,28.85,0,0,1-19-4.94,2.39,2.39,0,0,0-1.89-.37l-6.39,2.19a.53.53,0,0,1-.62-.68l2.42-5.78A2.53,2.53,0,0,0,778,198a27.929,27.929,0,1,1,25.82,11.77Z" transform="translate(-70.996 3871.946)"/><path class="a" d="M788.53,103.15a28.85,28.85,0,0,1-19-4.94,2.35,2.35,0,0,0-1.89-.37l-6.4,2.19a.52.52,0,0,1-.61-.68L763,93.57a2.53,2.53,0,0,0-.31-2.19,27.929,27.929,0,1,1,25.82,11.77Z" transform="translate(9.004 3958.946)"/><path class="a" d="M721.86,55.71a28.84,28.84,0,0,1-19-4.94,2.41,2.41,0,0,0-1.9-.37l-6.39,2.2a.54.54,0,0,1-.62-.68l2.42-5.79A2.44,2.44,0,0,0,696,44a27.933,27.933,0,1,1,25.83,11.76Z" transform="translate(9.004 3958.946)"/><path class="a" d="M638.1,57.38a28.78,28.78,0,0,1-19-4.94,2.41,2.41,0,0,0-1.9-.37l-6.39,2.2a.53.53,0,0,1-.62-.68l2.42-5.79a2.45,2.45,0,0,0-.31-2.18,27.915,27.915,0,1,1,25.8,11.76Z" transform="translate(9.004 3958.946)"/><path class="a" d="M465.29,177.56a28.84,28.84,0,0,1-19-4.95,2.45,2.45,0,0,0-1.9-.37l-6.39,2.2a.53.53,0,0,1-.62-.68l2.42-5.78a2.47,2.47,0,0,0-.31-2.19,27.93,27.93,0,1,1,25.83,11.77Z" transform="translate(75.004 3906.946)"/><path class="a" d="M495.89,246.86a28.87,28.87,0,0,1-19-4.94,2.38,2.38,0,0,0-1.89-.37l-6.39,2.19a.53.53,0,0,1-.62-.68l2.42-5.78a2.5,2.5,0,0,0-.31-2.19,27.929,27.929,0,1,1,25.82,11.77Z" transform="translate(-77.996 3814.946)"/><path class="a" d="M492.31,75a28.84,28.84,0,0,1-19-4.94,2.41,2.41,0,0,0-1.9-.37L465,71.89a.53.53,0,0,1-.62-.68l2.42-5.78a2.47,2.47,0,0,0-.31-2.19A27.93,27.93,0,1,1,492.31,75Z" transform="translate(9.004 3958.946)"/><path class="a" d="M134.28,120.3a28.85,28.85,0,0,1-19-4.94,2.38,2.38,0,0,0-1.89-.37L107,117.18a.53.53,0,0,1-.62-.68l2.42-5.78a2.51,2.51,0,0,0-.31-2.18,27.94,27.94,0,1,1,25.82,11.76Z" transform="translate(9.004 3958.946)"/><path class="a" d="M244.53,118.78a28.84,28.84,0,0,1-19-4.94,2.41,2.41,0,0,0-1.9-.37l-6.39,2.19a.53.53,0,0,1-.62-.68L219,109.2a2.47,2.47,0,0,0-.31-2.19,27.93,27.93,0,1,1,25.83,11.77Z" transform="translate(9.004 3958.946)"/><path class="a" d="M196.23,185.45a28.84,28.84,0,0,1-19-4.94,2.37,2.37,0,0,0-1.9-.37l-6.39,2.19a.53.53,0,0,1-.62-.68l2.42-5.78a2.47,2.47,0,0,0-.31-2.19,27.93,27.93,0,1,1,25.83,11.77Z" transform="translate(16.004 3898.946)"/><path class="a" d="M286.08,250.31a28.84,28.84,0,0,1-19-4.94,2.37,2.37,0,0,0-1.9-.37l-6.39,2.19a.53.53,0,0,1-.62-.68l2.42-5.78a2.47,2.47,0,0,0-.31-2.19,27.93,27.93,0,1,1,25.83,11.77Z" transform="translate(-283.996 3816.946)"/><path class="a" d="M131.51,181.19a28.84,28.84,0,0,1-19-4.95,2.39,2.39,0,0,0-1.89-.37l-6.4,2.2a.53.53,0,0,1-.62-.68l2.43-5.78a2.53,2.53,0,0,0-.31-2.19,27.929,27.929,0,1,1,25.82,11.77Z" transform="translate(-17.996 3910.946)"/><path class="a" d="M114.952,151.274a13.352,13.352,0,0,1-8.8-2.292,1.107,1.107,0,0,0-.875-.171l-2.963,1.019a.245.245,0,0,1-.287-.315l1.125-2.676a1.171,1.171,0,0,0-.144-1.014,12.931,12.931,0,1,1,11.954,5.449Z" transform="translate(12.004 3854.928)"/><path class="a" d="M114.952,151.274a13.352,13.352,0,0,1-8.8-2.292,1.107,1.107,0,0,0-.875-.171l-2.963,1.019a.245.245,0,0,1-.287-.315l1.125-2.676a1.171,1.171,0,0,0-.144-1.014,12.931,12.931,0,1,1,11.954,5.449Z" transform="translate(-73.996 3807.928)"/><path class="a" d="M114.952,151.274a13.352,13.352,0,0,1-8.8-2.292,1.107,1.107,0,0,0-.875-.171l-2.963,1.019a.245.245,0,0,1-.287-.315l1.125-2.676a1.171,1.171,0,0,0-.144-1.014,12.931,12.931,0,1,1,11.954,5.449Z" transform="translate(333.004 3823.928)"/><path class="a" d="M114.952,151.274a13.352,13.352,0,0,1-8.8-2.292,1.107,1.107,0,0,0-.875-.171l-2.963,1.019a.245.245,0,0,1-.287-.315l1.125-2.676a1.171,1.171,0,0,0-.144-1.014,12.931,12.931,0,1,1,11.954,5.449Z" transform="translate(264.004 3847.928)"/><path class="a" d="M114.952,151.274a13.352,13.352,0,0,1-8.8-2.292,1.107,1.107,0,0,0-.875-.171l-2.963,1.019a.245.245,0,0,1-.287-.315l1.125-2.676a1.171,1.171,0,0,0-.144-1.014,12.931,12.931,0,1,1,11.954,5.449Z" transform="translate(452.004 3816.928)"/><path class="a" d="M114.952,151.274a13.352,13.352,0,0,1-8.8-2.292,1.107,1.107,0,0,0-.875-.171l-2.963,1.019a.245.245,0,0,1-.287-.315l1.125-2.676a1.171,1.171,0,0,0-.144-1.014,12.931,12.931,0,1,1,11.954,5.449Z" transform="translate(683.004 3821.928)"/><path class="a" d="M114.952,151.274a13.352,13.352,0,0,1-8.8-2.292,1.107,1.107,0,0,0-.875-.171l-2.963,1.019a.245.245,0,0,1-.287-.315l1.125-2.676a1.171,1.171,0,0,0-.144-1.014,12.931,12.931,0,1,1,11.954,5.449Z" transform="translate(917.004 3854.928)"/><path class="a" d="M114.952,151.274a13.352,13.352,0,0,1-8.8-2.292,1.107,1.107,0,0,0-.875-.171l-2.963,1.019a.245.245,0,0,1-.287-.315l1.125-2.676a1.171,1.171,0,0,0-.144-1.014,12.931,12.931,0,1,1,11.954,5.449Z" transform="translate(1063.004 3829.928)"/><path class="a" d="M114.952,151.274a13.352,13.352,0,0,1-8.8-2.292,1.107,1.107,0,0,0-.875-.171l-2.963,1.019a.245.245,0,0,1-.287-.315l1.125-2.676a1.171,1.171,0,0,0-.144-1.014,12.931,12.931,0,1,1,11.954,5.449Z" transform="translate(1359.004 3795.928)"/><path class="a" d="M114.952,151.274a13.352,13.352,0,0,1-8.8-2.292,1.107,1.107,0,0,0-.875-.171l-2.963,1.019a.245.245,0,0,1-.287-.315l1.125-2.676a1.171,1.171,0,0,0-.144-1.014,12.931,12.931,0,1,1,11.954,5.449Z" transform="translate(1510.004 3847.928)"/><path class="a" d="M114.952,151.274a13.352,13.352,0,0,1-8.8-2.292,1.107,1.107,0,0,0-.875-.171l-2.963,1.019a.245.245,0,0,1-.287-.315l1.125-2.676a1.171,1.171,0,0,0-.144-1.014,12.931,12.931,0,1,1,11.954,5.449Z" transform="translate(1667.004 3803.928)"/><path class="a" d="M114.952,151.274a13.352,13.352,0,0,1-8.8-2.292,1.107,1.107,0,0,0-.875-.171l-2.963,1.019a.245.245,0,0,1-.287-.315l1.125-2.676a1.171,1.171,0,0,0-.144-1.014,12.931,12.931,0,1,1,11.954,5.449Z" transform="translate(1772.004 3828.928)"/><path class="a" d="M289.43,172.17a28.84,28.84,0,0,1-19-4.94,2.41,2.41,0,0,0-1.9-.37l-6.39,2.19a.53.53,0,0,1-.62-.68l2.42-5.78a2.47,2.47,0,0,0-.31-2.19,27.93,27.93,0,1,1,25.83,11.77Z" transform="translate(35.004 3917.946)"/><path class="a" d="M369.43,217.57a28.84,28.84,0,0,1-19-4.94,2.39,2.39,0,0,0-1.89-.37l-6.4,2.19a.53.53,0,0,1-.62-.68l2.43-5.78a2.51,2.51,0,0,0-.31-2.18,27.94,27.94,0,1,1,25.82,11.76Z" transform="translate(-70.996 3863.946)"/><path class="a" d="M354.11,110.92a28.84,28.84,0,0,1-19-4.94,2.39,2.39,0,0,0-1.89-.37l-6.4,2.19a.53.53,0,0,1-.62-.68l2.43-5.78a2.51,2.51,0,0,0-.31-2.18,27.94,27.94,0,1,1,25.82,11.76Z" transform="translate(9.004 3958.946)"/><path class="a" d="M287.43,63.49a28.86,28.86,0,0,1-19-5,2.43,2.43,0,0,0-1.89-.37l-6.4,2.2a.53.53,0,0,1-.61-.68l2.42-5.78a2.53,2.53,0,0,0-.31-2.19,27.929,27.929,0,1,1,25.82,11.77Z" transform="translate(9.004 3958.946)"/><path class="a" d="M203.67,65.16a28.85,28.85,0,0,1-19-4.94,2.35,2.35,0,0,0-1.89-.37L176.35,62a.53.53,0,0,1-.61-.68l2.42-5.78a2.53,2.53,0,0,0-.31-2.19,27.929,27.929,0,1,1,25.82,11.77Z" transform="translate(9.004 3958.946)"/><path class="a" d="M30.86,185.33a28.87,28.87,0,0,1-19-4.94A2.38,2.38,0,0,0,9.94,180l-6.39,2.19a.53.53,0,0,1-.62-.68l2.42-5.78A2.5,2.5,0,0,0,5,173.56a27.953,27.953,0,1,1,25.86,11.77Z" transform="translate(51.004 3885.946)"/><path class="a" d="M75.44,253.84a28.84,28.84,0,0,1-19-5,2.41,2.41,0,0,0-1.9-.37l-6.39,2.2a.53.53,0,0,1-.62-.68l2.42-5.78a2.47,2.47,0,0,0-.31-2.19,27.93,27.93,0,1,1,25.83,11.77Z" transform="translate(94.004 3827.946)"/><path class="a" d="M57.89,82.78a28.84,28.84,0,0,1-19-4.94,2.41,2.41,0,0,0-1.9-.37L30.6,79.66A.53.53,0,0,1,30,79l2.42-5.78A2.44,2.44,0,0,0,32.06,71,27.94,27.94,0,1,1,57.89,82.78Z" transform="translate(9.004 3958.946)"/><path class="a" d="M1004.91,188a28.88,28.88,0,0,1-19-4.94,2.38,2.38,0,0,0-1.89-.37l-6.39,2.19a.53.53,0,0,1-.62-.68l2.42-5.78a2.44,2.44,0,0,0-.31-2.18A27.94,27.94,0,1,1,1004.91,188Z" transform="translate(-41.996 3904.946)"/><path class="a" d="M1115.15,186.52a28.84,28.84,0,0,1-19-4.94,2.41,2.41,0,0,0-1.9-.37l-6.39,2.19a.53.53,0,0,1-.62-.68l2.42-5.78a2.47,2.47,0,0,0-.31-2.19,27.935,27.935,0,1,1,25.83,11.77Z" transform="translate(24.004 3897.946)"/><path class="a" d="M1066.85,253.19a28.84,28.84,0,0,1-19-4.94,2.41,2.41,0,0,0-1.9-.37l-6.39,2.19a.53.53,0,0,1-.62-.68l2.42-5.78a2.47,2.47,0,0,0-.31-2.19,27.93,27.93,0,1,1,25.83,11.77Z" transform="translate(-139.996 3830.946)"/><path class="a" d="M1002.13,248.93a28.86,28.86,0,0,1-19-5,2.43,2.43,0,0,0-1.89-.37l-6.4,2.2a.52.52,0,0,1-.61-.68l2.42-5.78a2.53,2.53,0,0,0-.31-2.19,27.929,27.929,0,1,1,25.82,11.77Z" transform="translate(46.004 3832.946)"/><path class="a" d="M1160.05,239.91a28.84,28.84,0,0,1-19-4.94,2.41,2.41,0,0,0-1.9-.37l-6.39,2.19a.53.53,0,0,1-.62-.68l2.42-5.78a2.44,2.44,0,0,0-.31-2.18,27.94,27.94,0,1,1,25.83,11.76Z" transform="translate(20.004 3837.946)"/><path class="a" d="M1224.73,178.66a28.84,28.84,0,0,1-19-4.94,2.39,2.39,0,0,0-1.89-.37l-6.4,2.19a.53.53,0,0,1-.62-.68l2.43-5.78a2.51,2.51,0,0,0-.31-2.18,27.94,27.94,0,1,1,25.82,11.76Z" transform="translate(7.004 3910.946)"/><path class="a" d="M1158.05,131.23a28.85,28.85,0,0,1-19-4.94,2.34,2.34,0,0,0-1.89-.37l-6.39,2.19a.53.53,0,0,1-.62-.68l2.42-5.78a2.531,2.531,0,0,0-.31-2.19,27.929,27.929,0,1,1,25.82,11.77Z" transform="translate(9.004 3958.946)"/><path class="a" d="M1074.29,132.9a28.85,28.85,0,0,1-19-4.94,2.38,2.38,0,0,0-1.89-.37l-6.39,2.19a.53.53,0,0,1-.62-.68l2.42-5.78a2.53,2.53,0,0,0-.31-2.19,27.929,27.929,0,1,1,25.82,11.77Z" transform="translate(9.004 3958.946)"/><path class="a" d="M901.49,253.07a28.84,28.84,0,0,1-19-4.94,2.41,2.41,0,0,0-1.9-.37L874.17,250a.53.53,0,0,1-.62-.68l2.42-5.78a2.44,2.44,0,0,0-.31-2.18,27.94,27.94,0,1,1,25.83,11.76Z" transform="translate(-47.996 3821.946)"/><path class="a" d="M928.51,150.52a28.84,28.84,0,0,1-19-4.94,2.41,2.41,0,0,0-1.9-.37l-6.39,2.2a.54.54,0,0,1-.62-.68l2.42-5.79a2.44,2.44,0,0,0-.31-2.18,27.94,27.94,0,1,1,25.83,11.76Z" transform="translate(9.004 3958.946)"/><path class="a" d="M562.891,112.53a28.84,28.84,0,0,0,19-4.94,2.37,2.37,0,0,1,1.9-.37l6.39,2.19a.53.53,0,0,0,.62-.68l-2.42-5.78a2.47,2.47,0,0,1,.31-2.19,27.93,27.93,0,1,0-25.83,11.77Z" transform="matrix(0.998, 0.07, -0.07, 0.998, 897.305, 3892.91)"/><path class="a" d="M673.2,111a28.84,28.84,0,0,0,19-5,2.39,2.39,0,0,1,1.89-.37l6.4,2.2a.53.53,0,0,0,.62-.68l-2.43-5.78a2.53,2.53,0,0,1,.31-2.19A27.913,27.913,0,1,0,673.2,111Z" transform="matrix(0.998, 0.07, -0.07, 0.998, 677.24, 3877.522)"/><path class="a" d="M624.827,177.67a28.78,28.78,0,0,0,19-4.94,2.41,2.41,0,0,1,1.9-.37l6.39,2.2a.54.54,0,0,0,.62-.68l-2.42-5.79a2.45,2.45,0,0,1,.31-2.18,27.94,27.94,0,1,0-25.83,11.76Z" transform="matrix(0.998, 0.07, -0.07, 0.998, 778.731, 3867.269)"/><path class="a" d="M714.654,242.53a28.78,28.78,0,0,0,19-4.94,2.39,2.39,0,0,1,1.89-.37l6.4,2.2a.53.53,0,0,0,.62-.68l-2.41-5.74a2.51,2.51,0,0,1,.31-2.18,27.933,27.933,0,1,0-25.82,11.76Z" transform="matrix(0.998, 0.07, -0.07, 0.998, 565.491, 3795.735)"/><path class="a" d="M560.126,173.41a28.85,28.85,0,0,0,19-4.94,2.39,2.39,0,0,1,1.89-.37l6.39,2.19a.53.53,0,0,0,.62-.68l-2.42-5.78a2.51,2.51,0,0,1,.31-2.18,27.94,27.94,0,1,0-25.82,11.76Z" transform="matrix(0.998, 0.07, -0.07, 0.998, 942.837, 3874.297)"/><path class="a" d="M615.536,255.08a28.85,28.85,0,0,0,19-4.94,2.38,2.38,0,0,1,1.89-.37l6.42,2.23a.53.53,0,0,0,.62-.68l-2.42-5.78a2.51,2.51,0,0,1,.31-2.18,27.94,27.94,0,1,0-25.82,11.76Z" transform="matrix(0.998, 0.07, -0.07, 0.998, 823.227, 3776.563)"/><path class="a" d="M717.986,164.4a28.84,28.84,0,0,0,19-5,2.45,2.45,0,0,1,1.9-.37l6.39,2.2a.53.53,0,0,0,.62-.68l-2.42-5.78a2.47,2.47,0,0,1,.31-2.19,27.9,27.9,0,1,0-25.8,11.81Z" transform="matrix(0.998, 0.07, -0.07, 0.998, 587.826, 3871.269)"/><path class="a" d="M797.926,209.8a28.85,28.85,0,0,0,19-4.94,2.39,2.39,0,0,1,1.89-.37l6.39,2.19a.53.53,0,0,0,.62-.68l-2.42-5.78a2.53,2.53,0,0,1,.37-2.22,27.929,27.929,0,1,0-25.82,11.77Z" transform="matrix(0.998, 0.07, -0.07, 0.998, 421.275, 3811.113)"/><path class="a" d="M782.626,103.15a28.85,28.85,0,0,0,19-4.94,2.35,2.35,0,0,1,1.89-.37l6.4,2.19a.52.52,0,0,0,.61-.68l-2.37-5.78a2.53,2.53,0,0,1,.31-2.19,27.929,27.929,0,1,0-25.82,11.77Z" transform="matrix(0.998, 0.07, -0.07, 0.998, 458.821, 3862.249)"/><path class="a" d="M715.916,55.71a28.84,28.84,0,0,0,19-4.94,2.41,2.41,0,0,1,1.9-.37l6.39,2.2a.54.54,0,0,0,.62-.68l-2.42-5.79a2.44,2.44,0,0,1,.37-2.13,27.933,27.933,0,1,0-25.83,11.76Z" transform="matrix(0.998, 0.07, -0.07, 0.998, 591.876, 3871.552)"/><path class="a" d="M632.215,57.38a28.78,28.78,0,0,0,19-4.94,2.41,2.41,0,0,1,1.9-.37l6.39,2.2a.53.53,0,0,0,.62-.68L657.7,47.8a2.45,2.45,0,0,1,.31-2.18,27.915,27.915,0,1,0-25.8,11.76Z" transform="matrix(0.998, 0.07, -0.07, 0.998, 758.929, 3883.234)"/><path class="a" d="M459.471,177.56a28.84,28.84,0,0,0,19-4.95,2.45,2.45,0,0,1,1.9-.37l6.39,2.2a.53.53,0,0,0,.62-.68l-2.42-5.78a2.47,2.47,0,0,1,.31-2.19,27.93,27.93,0,1,0-25.83,11.77Z" transform="matrix(0.998, 0.07, -0.07, 0.998, 1108.642, 3880.339)"/><path class="a" d="M490.086,246.86a28.87,28.87,0,0,0,19-4.94,2.38,2.38,0,0,1,1.89-.37l6.39,2.19a.53.53,0,0,0,.62-.68l-2.42-5.78a2.5,2.5,0,0,1,.31-2.19,27.929,27.929,0,1,0-25.82,11.77Z" transform="matrix(0.998, 0.07, -0.07, 0.998, 1113.575, 3800.069)"/><path class="a" d="M486.436,75a28.84,28.84,0,0,0,19-4.94,2.41,2.41,0,0,1,1.9-.37l6.41,2.2a.53.53,0,0,0,.62-.68l-2.42-5.78a2.47,2.47,0,0,1,.31-2.19A27.93,27.93,0,1,0,486.436,75Z" transform="matrix(0.998, 0.07, -0.07, 0.998, 1049.787, 3903.573)"/><path class="a" d="M128.476,120.3a28.85,28.85,0,0,0,19-4.94,2.38,2.38,0,0,1,1.89-.37l6.39,2.19a.53.53,0,0,0,.62-.68l-2.42-5.78a2.51,2.51,0,0,1,.31-2.18,27.94,27.94,0,1,0-25.82,11.76Z" transform="matrix(0.998, 0.07, -0.07, 0.998, 1764.034, 3953.518)"/><path class="a" d="M238.631,118.78a28.84,28.84,0,0,0,19-4.94,2.41,2.41,0,0,1,1.9-.37l6.39,2.19a.53.53,0,0,0,.62-.68l-2.38-5.78a2.47,2.47,0,0,1,.31-2.19,27.93,27.93,0,1,0-25.83,11.77Z" transform="matrix(0.998, 0.07, -0.07, 0.998, 1544.166, 3938.143)"/><path class="a" d="M190.411,185.45a28.84,28.84,0,0,0,19-4.94,2.37,2.37,0,0,1,1.9-.37l6.39,2.19a.53.53,0,0,0,.62-.68l-2.42-5.78a2.47,2.47,0,0,1,.31-2.19,27.93,27.93,0,1,0-25.83,11.77Z" transform="matrix(0.998, 0.07, -0.07, 0.998, 1633.451, 3888.876)"/><path class="a" d="M280.261,250.31a28.84,28.84,0,0,0,19-4.94,2.37,2.37,0,0,1,1.9-.37l6.39,2.19a.53.53,0,0,0,.62-.68l-2.42-5.78a2.47,2.47,0,0,1,.31-2.19,27.93,27.93,0,1,0-25.83,11.77Z" transform="matrix(0.998, 0.07, -0.07, 0.998, 1469.188, 3817.341)"/><path class="a" d="M125.706,181.19a28.84,28.84,0,0,0,19-4.95,2.39,2.39,0,0,1,1.89-.37l6.4,2.2a.53.53,0,0,0,.62-.68l-2.43-5.78a2.53,2.53,0,0,1,.31-2.19,27.929,27.929,0,1,0-25.82,11.77Z" transform="matrix(0.998, 0.07, -0.07, 0.998, 1800.56, 3899.904)"/><path class="a" d="M283.611,172.17a28.84,28.84,0,0,0,19-4.94,2.41,2.41,0,0,1,1.9-.37l6.39,2.19a.53.53,0,0,0,.62-.68l-2.42-5.78a2.47,2.47,0,0,1,.31-2.19,27.93,27.93,0,1,0-25.83,11.77Z" transform="matrix(0.998, 0.07, -0.07, 0.998, 1423.505, 3893.874)"/><path class="a" d="M363.626,217.57a28.84,28.84,0,0,0,19-4.94,2.39,2.39,0,0,1,1.89-.37l6.4,2.19a.53.53,0,0,0,.62-.68l-2.43-5.78a2.51,2.51,0,0,1,.31-2.18,27.94,27.94,0,1,0-25.82,11.76Z" transform="matrix(0.998, 0.07, -0.07, 0.998, 1267.88, 3829.711)"/><path class="a" d="M348.306,110.92a28.84,28.84,0,0,0,19-4.94,2.39,2.39,0,0,1,1.89-.37l6.4,2.19a.53.53,0,0,0,.62-.68l-2.43-5.78a2.51,2.51,0,0,1,.31-2.18,27.94,27.94,0,1,0-25.82,11.76Z" transform="matrix(0.998, 0.07, -0.07, 0.998, 1325.445, 3922.849)"/><path class="a" d="M281.626,63.49a28.86,28.86,0,0,0,19-5,2.43,2.43,0,0,1,1.89-.37l6.4,2.2a.53.53,0,0,0,.61-.68l-2.42-5.78a2.53,2.53,0,0,1,.31-2.19A27.929,27.929,0,1,0,281.6,63.44Z" transform="matrix(0.998, 0.07, -0.07, 0.998, 1458.48, 3932.151)"/><path class="a" d="M197.806,65.16a28.85,28.85,0,0,0,19-4.94,2.35,2.35,0,0,1,1.89-.37l6.43,2.15a.53.53,0,0,0,.61-.68l-2.42-5.78a2.53,2.53,0,0,1,.31-2.19,27.929,27.929,0,1,0-25.82,11.77Z" transform="matrix(0.998, 0.07, -0.07, 0.998, 1625.651, 3943.841)"/><path class="a" d="M25,185.33a28.87,28.87,0,0,0,19-4.94,2.38,2.38,0,0,1,1.92-.39l6.39,2.19a.53.53,0,0,0,.62-.68l-2.42-5.78a2.5,2.5,0,0,1,.35-2.17A27.953,27.953,0,1,0,25,185.33Z" transform="matrix(0.998, 0.07, -0.07, 0.998, 1841.429, 3892.95)"/><path class="a" d="M69.621,253.84a28.84,28.84,0,0,0,19-5,2.41,2.41,0,0,1,1.9-.37l6.39,2.2a.53.53,0,0,0,.62-.68l-2.42-5.78a2.47,2.47,0,0,1,.31-2.19,27.93,27.93,0,1,0-25.83,11.77Z" transform="matrix(0.998, 0.07, -0.07, 0.998, 1478.442, 3817.728)"/><path class="a" d="M52.033,82.78a28.84,28.84,0,0,0,19-4.94,2.41,2.41,0,0,1,1.9-.37l6.39,2.19a.53.53,0,0,0,.6-.66L77.5,73.22a2.44,2.44,0,0,1,.36-2.22,27.94,27.94,0,1,0-25.83,11.78Z" transform="matrix(0.998, 0.07, -0.07, 0.998, 1886.494, 3956.179)"/><path class="a" d="M999.1,188a28.88,28.88,0,0,0,19-4.94,2.38,2.38,0,0,1,1.89-.37l6.39,2.19a.53.53,0,0,0,.62-.68l-2.42-5.78a2.44,2.44,0,0,1,.31-2.18A27.94,27.94,0,1,0,999.1,188Z" transform="matrix(0.998, 0.07, -0.07, 0.998, 27.02, 3832.054)"/><path class="a" d="M1109.346,186.52a28.84,28.84,0,0,0,19-4.94,2.41,2.41,0,0,1,1.9-.37l6.39,2.19a.53.53,0,0,0,.62-.68l-2.42-5.78a2.47,2.47,0,0,1,.31-2.19,27.935,27.935,0,1,0-25.83,11.77Z" transform="matrix(0.998, 0.07, -0.07, 0.998, -192.928, 3816.674)"/><path class="a" d="M996.326,248.93a28.86,28.86,0,0,0,19-5,2.43,2.43,0,0,1,1.89-.37l6.4,2.2a.52.52,0,0,0,.61-.68l-2.42-5.78a2.53,2.53,0,0,1,.31-2.19,27.929,27.929,0,1,0-25.82,11.77Z" transform="matrix(0.998, 0.07, -0.07, 0.998, 8.562, 3768.441)"/><path class="a" d="M1154.228,239.91a28.84,28.84,0,0,0,19-4.94,2.41,2.41,0,0,1,1.9-.37l6.39,2.19a.53.53,0,0,0,.62-.68l-2.42-5.78a2.44,2.44,0,0,1,.31-2.18,27.94,27.94,0,1,0-25.83,11.76Z" transform="matrix(0.998, 0.07, -0.07, 0.998, -268.491, 3767.411)"/><path class="a" d="M1218.926,178.66a28.84,28.84,0,0,0,19-4.94,2.39,2.39,0,0,1,1.89-.37l6.4,2.19a.53.53,0,0,0,.62-.68l-2.43-5.78a2.51,2.51,0,0,1,.31-2.18,27.94,27.94,0,1,0-25.82,11.76Z" transform="matrix(0.998, 0.07, -0.07, 0.998, -411.554, 3801.386)"/><path class="a" d="M1152.246,131.23a28.85,28.85,0,0,0,19-4.94,2.34,2.34,0,0,1,1.89-.37l6.39,2.19a.53.53,0,0,0,.62-.68l-2.42-5.78a2.531,2.531,0,0,1,.31-2.19,27.929,27.929,0,1,0-25.82,11.77Z" transform="matrix(0.998, 0.07, -0.07, 0.998, -278.518, 3810.689)"/><path class="a" d="M1068.486,132.9a28.85,28.85,0,0,0,19-4.94,2.38,2.38,0,0,1,1.89-.37l6.39,2.19a.53.53,0,0,0,.62-.68l-2.42-5.78a2.53,2.53,0,0,1,.31-2.19,27.929,27.929,0,1,0-25.82,11.77Z" transform="matrix(0.998, 0.07, -0.07, 0.998, -111.407, 3822.374)"/><path class="a" d="M895.607,253.07a28.84,28.84,0,0,0,19-4.94,2.41,2.41,0,0,1,1.9-.37l6.42,2.24a.53.53,0,0,0,.62-.68l-2.42-5.78a2.44,2.44,0,0,1,.31-2.18,27.94,27.94,0,1,0-25.83,11.76Z" transform="matrix(0.998, 0.07, -0.07, 0.998, 440.43, 3773.488)"/><path class="a" d="M922.687,150.52a28.84,28.84,0,0,0,19-4.94,2.41,2.41,0,0,1,1.9-.37l6.39,2.2a.54.54,0,0,0,.62-.68l-2.42-5.79a2.44,2.44,0,0,1,.31-2.18,27.94,27.94,0,1,0-25.83,11.76Z" transform="matrix(0.998, 0.07, -0.07, 0.998, 179.462, 3842.714)"/></g></svg>