<svg xmlns="http://www.w3.org/2000/svg" width="1966.065" height="189.786" viewBox="0 0 1966.065 189.786"><defs><style>.a{fill:#284c61;}</style></defs><g transform="translate(0)"><g transform="translate(0 0)"><path class="a" d="M568.71,112.53a28.84,28.84,0,0,1-19-4.94,2.37,2.37,0,0,0-1.9-.37l-6.39,2.19a.53.53,0,0,1-.62-.68l2.42-5.78a2.47,2.47,0,0,0-.31-2.19,27.93,27.93,0,1,1,25.83,11.77Z" transform="translate(7.76 39.142)"/><path class="a" d="M679,111a28.84,28.84,0,0,1-19-5,2.39,2.39,0,0,0-1.89-.37l-6.4,2.2a.53.53,0,0,1-.62-.68l2.43-5.78a2.53,2.53,0,0,0-.31-2.19A27.913,27.913,0,1,1,679,111Z" transform="translate(7.76 39.142)"/><path class="a" d="M630.65,177.67a28.78,28.78,0,0,1-19-4.94,2.41,2.41,0,0,0-1.9-.37l-6.39,2.2a.54.54,0,0,1-.62-.68l2.42-5.79a2.45,2.45,0,0,0-.31-2.18,27.94,27.94,0,1,1,25.83,11.76Z" transform="translate(-8.24 -17.858)"/><path class="a" d="M720.5,242.53a28.78,28.78,0,0,1-19-4.94,2.39,2.39,0,0,0-1.89-.37l-6.4,2.2a.53.53,0,0,1-.62-.68L695,233a2.51,2.51,0,0,0-.31-2.18,27.933,27.933,0,1,1,25.82,11.76Z" transform="translate(50.76 -73.858)"/><path class="a" d="M565.93,173.41a28.85,28.85,0,0,1-19-4.94,2.39,2.39,0,0,0-1.89-.37l-6.39,2.19a.53.53,0,0,1-.62-.68l2.42-5.78a2.51,2.51,0,0,0-.31-2.18,27.94,27.94,0,1,1,25.82,11.76Z" transform="translate(84.76 -4.858)"/><path class="a" d="M621.4,255.08a28.85,28.85,0,0,1-19-4.94,2.38,2.38,0,0,0-1.89-.37L594.09,252a.53.53,0,0,1-.62-.68l2.42-5.78a2.51,2.51,0,0,0-.31-2.18,27.94,27.94,0,1,1,25.82,11.76Z" transform="translate(-183.24 -96.858)"/><path class="a" d="M723.85,164.4a28.84,28.84,0,0,1-19-5,2.45,2.45,0,0,0-1.9-.37l-6.39,2.2a.53.53,0,0,1-.62-.68l2.42-5.78a2.47,2.47,0,0,0-.31-2.19,27.9,27.9,0,1,1,25.8,11.81Z" transform="translate(-230.24 4.142)"/><path class="a" d="M803.85,209.8a28.85,28.85,0,0,1-19-4.94,2.39,2.39,0,0,0-1.89-.37l-6.39,2.19a.53.53,0,0,1-.62-.68l2.42-5.78A2.53,2.53,0,0,0,778,198a27.929,27.929,0,1,1,25.82,11.77Z" transform="translate(-72.24 -47.858)"/><path class="a" d="M788.53,103.15a28.85,28.85,0,0,1-19-4.94,2.35,2.35,0,0,0-1.89-.37l-6.4,2.19a.52.52,0,0,1-.61-.68L763,93.57a2.53,2.53,0,0,0-.31-2.19,27.929,27.929,0,1,1,25.82,11.77Z" transform="translate(7.76 39.142)"/><path class="a" d="M721.86,55.71a28.84,28.84,0,0,1-19-4.94,2.41,2.41,0,0,0-1.9-.37l-6.39,2.2a.54.54,0,0,1-.62-.68l2.42-5.79A2.44,2.44,0,0,0,696,44a27.933,27.933,0,1,1,25.83,11.76Z" transform="translate(7.76 39.142)"/><path class="a" d="M638.1,57.38a28.78,28.78,0,0,1-19-4.94,2.41,2.41,0,0,0-1.9-.37l-6.39,2.2a.53.53,0,0,1-.62-.68l2.42-5.79a2.45,2.45,0,0,0-.31-2.18,27.915,27.915,0,1,1,25.8,11.76Z" transform="translate(7.76 39.142)"/><path class="a" d="M465.29,177.56a28.84,28.84,0,0,1-19-4.95,2.45,2.45,0,0,0-1.9-.37l-6.39,2.2a.53.53,0,0,1-.62-.68l2.42-5.78a2.47,2.47,0,0,0-.31-2.19,27.93,27.93,0,1,1,25.83,11.77Z" transform="translate(73.76 -12.858)"/><path class="a" d="M495.89,246.86a28.87,28.87,0,0,1-19-4.94,2.38,2.38,0,0,0-1.89-.37l-6.39,2.19a.53.53,0,0,1-.62-.68l2.42-5.78a2.5,2.5,0,0,0-.31-2.19,27.929,27.929,0,1,1,25.82,11.77Z" transform="translate(-79.24 -104.858)"/><path class="a" d="M492.31,75a28.84,28.84,0,0,1-19-4.94,2.41,2.41,0,0,0-1.9-.37L465,71.89a.53.53,0,0,1-.62-.68l2.42-5.78a2.47,2.47,0,0,0-.31-2.19A27.93,27.93,0,1,1,492.31,75Z" transform="translate(7.76 39.142)"/><path class="a" d="M134.28,120.3a28.85,28.85,0,0,1-19-4.94,2.38,2.38,0,0,0-1.89-.37L107,117.18a.53.53,0,0,1-.62-.68l2.42-5.78a2.51,2.51,0,0,0-.31-2.18,27.94,27.94,0,1,1,25.82,11.76Z" transform="translate(7.761 39.142)"/><path class="a" d="M244.53,118.78a28.84,28.84,0,0,1-19-4.94,2.41,2.41,0,0,0-1.9-.37l-6.39,2.19a.53.53,0,0,1-.62-.68L219,109.2a2.47,2.47,0,0,0-.31-2.19,27.93,27.93,0,1,1,25.83,11.77Z" transform="translate(7.76 39.142)"/><path class="a" d="M196.23,185.45a28.84,28.84,0,0,1-19-4.94,2.37,2.37,0,0,0-1.9-.37l-6.39,2.19a.53.53,0,0,1-.62-.68l2.42-5.78a2.47,2.47,0,0,0-.31-2.19,27.93,27.93,0,1,1,25.83,11.77Z" transform="translate(14.76 -20.858)"/><path class="a" d="M286.08,250.31a28.84,28.84,0,0,1-19-4.94,2.37,2.37,0,0,0-1.9-.37l-6.39,2.19a.53.53,0,0,1-.62-.68l2.42-5.78a2.47,2.47,0,0,0-.31-2.19,27.93,27.93,0,1,1,25.83,11.77Z" transform="translate(-255.24 -82.858)"/><path class="a" d="M131.51,181.19a28.84,28.84,0,0,1-19-4.95,2.39,2.39,0,0,0-1.89-.37l-6.4,2.2a.53.53,0,0,1-.62-.68l2.43-5.78a2.53,2.53,0,0,0-.31-2.19,27.929,27.929,0,1,1,25.82,11.77Z" transform="translate(-19.239 -8.858)"/><path class="a" d="M114.952,151.274a13.352,13.352,0,0,1-8.8-2.292,1.107,1.107,0,0,0-.875-.171l-2.963,1.019a.245.245,0,0,1-.287-.315l1.125-2.676a1.171,1.171,0,0,0-.144-1.014,12.931,12.931,0,1,1,11.954,5.449Z" transform="translate(10.76 -64.876)"/><path class="a" d="M114.952,151.274a13.352,13.352,0,0,1-8.8-2.292,1.107,1.107,0,0,0-.875-.171l-2.963,1.019a.245.245,0,0,1-.287-.315l1.125-2.676a1.171,1.171,0,0,0-.144-1.014,12.931,12.931,0,1,1,11.954,5.449Z" transform="translate(-75.24 -111.876)"/><path class="a" d="M114.952,151.274a13.352,13.352,0,0,1-8.8-2.292,1.107,1.107,0,0,0-.875-.171l-2.963,1.019a.245.245,0,0,1-.287-.315l1.125-2.676a1.171,1.171,0,0,0-.144-1.014,12.931,12.931,0,1,1,11.954,5.449Z" transform="translate(331.76 -95.876)"/><path class="a" d="M114.952,151.274a13.352,13.352,0,0,1-8.8-2.292,1.107,1.107,0,0,0-.875-.171l-2.963,1.019a.245.245,0,0,1-.287-.315l1.125-2.676a1.171,1.171,0,0,0-.144-1.014,12.931,12.931,0,1,1,11.954,5.449Z" transform="translate(262.76 -71.876)"/><path class="a" d="M114.952,151.274a13.352,13.352,0,0,1-8.8-2.292,1.107,1.107,0,0,0-.875-.171l-2.963,1.019a.245.245,0,0,1-.287-.315l1.125-2.676a1.171,1.171,0,0,0-.144-1.014,12.931,12.931,0,1,1,11.954,5.449Z" transform="translate(450.76 -102.876)"/><path class="a" d="M114.952,151.274a13.352,13.352,0,0,1-8.8-2.292,1.107,1.107,0,0,0-.875-.171l-2.963,1.019a.245.245,0,0,1-.287-.315l1.125-2.676a1.171,1.171,0,0,0-.144-1.014,12.931,12.931,0,1,1,11.954,5.449Z" transform="translate(681.76 -97.876)"/><path class="a" d="M114.952,151.274a13.352,13.352,0,0,1-8.8-2.292,1.107,1.107,0,0,0-.875-.171l-2.963,1.019a.245.245,0,0,1-.287-.315l1.125-2.676a1.171,1.171,0,0,0-.144-1.014,12.931,12.931,0,1,1,11.954,5.449Z" transform="translate(915.76 -64.876)"/><path class="a" d="M114.952,151.274a13.352,13.352,0,0,1-8.8-2.292,1.107,1.107,0,0,0-.875-.171l-2.963,1.019a.245.245,0,0,1-.287-.315l1.125-2.676a1.171,1.171,0,0,0-.144-1.014,12.931,12.931,0,1,1,11.954,5.449Z" transform="translate(1061.76 -89.876)"/><path class="a" d="M114.952,151.274a13.352,13.352,0,0,1-8.8-2.292,1.107,1.107,0,0,0-.875-.171l-2.963,1.019a.245.245,0,0,1-.287-.315l1.125-2.676a1.171,1.171,0,0,0-.144-1.014,12.931,12.931,0,1,1,11.954,5.449Z" transform="translate(1357.76 -123.876)"/><path class="a" d="M114.952,151.274a13.352,13.352,0,0,1-8.8-2.292,1.107,1.107,0,0,0-.875-.171l-2.963,1.019a.245.245,0,0,1-.287-.315l1.125-2.676a1.171,1.171,0,0,0-.144-1.014,12.931,12.931,0,1,1,11.954,5.449Z" transform="translate(1508.76 -71.876)"/><path class="a" d="M114.952,151.274a13.352,13.352,0,0,1-8.8-2.292,1.107,1.107,0,0,0-.875-.171l-2.963,1.019a.245.245,0,0,1-.287-.315l1.125-2.676a1.171,1.171,0,0,0-.144-1.014,12.931,12.931,0,1,1,11.954,5.449Z" transform="translate(1665.76 -115.876)"/><path class="a" d="M114.952,151.274a13.352,13.352,0,0,1-8.8-2.292,1.107,1.107,0,0,0-.875-.171l-2.963,1.019a.245.245,0,0,1-.287-.315l1.125-2.676a1.171,1.171,0,0,0-.144-1.014,12.931,12.931,0,1,1,11.954,5.449Z" transform="translate(1770.76 -90.876)"/><path class="a" d="M289.43,172.17a28.84,28.84,0,0,1-19-4.94,2.41,2.41,0,0,0-1.9-.37l-6.39,2.19a.53.53,0,0,1-.62-.68l2.42-5.78a2.47,2.47,0,0,0-.31-2.19,27.93,27.93,0,1,1,25.83,11.77Z" transform="translate(33.76 -1.858)"/><path class="a" d="M369.43,217.57a28.84,28.84,0,0,1-19-4.94,2.39,2.39,0,0,0-1.89-.37l-6.4,2.19a.53.53,0,0,1-.62-.68l2.43-5.78a2.51,2.51,0,0,0-.31-2.18,27.94,27.94,0,1,1,25.82,11.76Z" transform="translate(-72.24 -55.858)"/><path class="a" d="M354.11,110.92a28.84,28.84,0,0,1-19-4.94,2.39,2.39,0,0,0-1.89-.37l-6.4,2.19a.53.53,0,0,1-.62-.68l2.43-5.78a2.51,2.51,0,0,0-.31-2.18,27.94,27.94,0,1,1,25.82,11.76Z" transform="translate(7.76 39.142)"/><path class="a" d="M287.43,63.49a28.86,28.86,0,0,1-19-5,2.43,2.43,0,0,0-1.89-.37l-6.4,2.2a.53.53,0,0,1-.61-.68l2.42-5.78a2.53,2.53,0,0,0-.31-2.19,27.929,27.929,0,1,1,25.82,11.77Z" transform="translate(7.761 39.142)"/><path class="a" d="M203.67,65.16a28.85,28.85,0,0,1-19-4.94,2.35,2.35,0,0,0-1.89-.37L176.35,62a.53.53,0,0,1-.61-.68l2.42-5.78a2.53,2.53,0,0,0-.31-2.19,27.929,27.929,0,1,1,25.82,11.77Z" transform="translate(7.76 39.142)"/><path class="a" d="M30.86,185.33a28.87,28.87,0,0,1-19-4.94A2.38,2.38,0,0,0,9.94,180l-6.39,2.19a.53.53,0,0,1-.62-.68l2.42-5.78A2.5,2.5,0,0,0,5,173.56a27.953,27.953,0,1,1,25.86,11.77Z" transform="translate(49.761 -33.858)"/><path class="a" d="M75.44,253.84a28.84,28.84,0,0,1-19-5,2.41,2.41,0,0,0-1.9-.37l-6.39,2.2a.53.53,0,0,1-.62-.68l2.42-5.78a2.47,2.47,0,0,0-.31-2.19,27.93,27.93,0,1,1,25.83,11.77Z" transform="translate(92.76 -91.858)"/><path class="a" d="M57.89,82.78a28.84,28.84,0,0,1-19-4.94,2.41,2.41,0,0,0-1.9-.37L30.6,79.66A.53.53,0,0,1,30,79l2.42-5.78A2.44,2.44,0,0,0,32.06,71,27.94,27.94,0,1,1,57.89,82.78Z" transform="translate(7.761 39.142)"/><path class="a" d="M1004.91,188a28.88,28.88,0,0,1-19-4.94,2.38,2.38,0,0,0-1.89-.37l-6.39,2.19a.53.53,0,0,1-.62-.68l2.42-5.78a2.44,2.44,0,0,0-.31-2.18A27.94,27.94,0,1,1,1004.91,188Z" transform="translate(-43.24 -14.858)"/><path class="a" d="M1115.15,186.52a28.84,28.84,0,0,1-19-4.94,2.41,2.41,0,0,0-1.9-.37l-6.39,2.19a.53.53,0,0,1-.62-.68l2.42-5.78a2.47,2.47,0,0,0-.31-2.19,27.935,27.935,0,1,1,25.83,11.77Z" transform="translate(22.76 -21.858)"/><path class="a" d="M1066.85,253.19a28.84,28.84,0,0,1-19-4.94,2.41,2.41,0,0,0-1.9-.37l-6.39,2.19a.53.53,0,0,1-.62-.68l2.42-5.78a2.47,2.47,0,0,0-.31-2.19,27.93,27.93,0,1,1,25.83,11.77Z" transform="translate(-141.24 -88.858)"/><path class="a" d="M1002.13,248.93a28.86,28.86,0,0,1-19-5,2.43,2.43,0,0,0-1.89-.37l-6.4,2.2a.52.52,0,0,1-.61-.68l2.42-5.78a2.53,2.53,0,0,0-.31-2.19,27.929,27.929,0,1,1,25.82,11.77Z" transform="translate(44.761 -86.858)"/><path class="a" d="M1160.05,239.91a28.84,28.84,0,0,1-19-4.94,2.41,2.41,0,0,0-1.9-.37l-6.39,2.19a.53.53,0,0,1-.62-.68l2.42-5.78a2.44,2.44,0,0,0-.31-2.18,27.94,27.94,0,1,1,25.83,11.76Z" transform="translate(18.76 -81.858)"/><path class="a" d="M1224.73,178.66a28.84,28.84,0,0,1-19-4.94,2.39,2.39,0,0,0-1.89-.37l-6.4,2.19a.53.53,0,0,1-.62-.68l2.43-5.78a2.51,2.51,0,0,0-.31-2.18,27.94,27.94,0,1,1,25.82,11.76Z" transform="translate(5.76 -8.858)"/><path class="a" d="M1158.05,131.23a28.85,28.85,0,0,1-19-4.94,2.34,2.34,0,0,0-1.89-.37l-6.39,2.19a.53.53,0,0,1-.62-.68l2.42-5.78a2.531,2.531,0,0,0-.31-2.19,27.929,27.929,0,1,1,25.82,11.77Z" transform="translate(7.76 39.142)"/><path class="a" d="M1074.29,132.9a28.85,28.85,0,0,1-19-4.94,2.38,2.38,0,0,0-1.89-.37l-6.39,2.19a.53.53,0,0,1-.62-.68l2.42-5.78a2.53,2.53,0,0,0-.31-2.19,27.929,27.929,0,1,1,25.82,11.77Z" transform="translate(7.76 39.142)"/><path class="a" d="M901.49,253.07a28.84,28.84,0,0,1-19-4.94,2.41,2.41,0,0,0-1.9-.37L874.17,250a.53.53,0,0,1-.62-.68l2.42-5.78a2.44,2.44,0,0,0-.31-2.18,27.94,27.94,0,1,1,25.83,11.76Z" transform="translate(-49.24 -97.858)"/><path class="a" d="M928.51,150.52a28.84,28.84,0,0,1-19-4.94,2.41,2.41,0,0,0-1.9-.37l-6.39,2.2a.54.54,0,0,1-.62-.68l2.42-5.79a2.44,2.44,0,0,0-.31-2.18,27.94,27.94,0,1,1,25.83,11.76Z" transform="translate(7.76 39.142)"/><path class="a" d="M25.021,55.706a28.84,28.84,0,0,0,19-4.94,2.37,2.37,0,0,1,1.9-.37l6.39,2.19a.53.53,0,0,0,.62-.68l-2.42-5.78a2.47,2.47,0,0,1,.31-2.19,27.93,27.93,0,1,0-25.83,11.77Z" transform="matrix(0.998, 0.07, -0.07, 0.998, 1428.658, 67.311)"/><path class="a" d="M25.034,55.711a28.84,28.84,0,0,0,19-5,2.39,2.39,0,0,1,1.89-.37l6.4,2.2a.53.53,0,0,0,.62-.68l-2.43-5.78a2.53,2.53,0,0,1,.31-2.19,27.913,27.913,0,1,0-25.79,11.82Z" transform="matrix(0.998, 0.07, -0.07, 0.998, 1318.731, 58.086)"/><path class="a" d="M25.03,55.726a28.78,28.78,0,0,0,19-4.94,2.41,2.41,0,0,1,1.9-.37l6.39,2.2a.54.54,0,0,0,.62-.68l-2.42-5.79a2.45,2.45,0,0,1,.31-2.18A27.94,27.94,0,1,0,25,55.726Z" transform="matrix(0.998, 0.07, -0.07, 0.998, 1367.318, 110.951)"/><path class="a" d="M25.03,55.726a28.78,28.78,0,0,0,19-4.94,2.41,2.41,0,0,1,1.9-.37l6.39,2.2a.54.54,0,0,0,.62-.68l-2.42-5.79a2.45,2.45,0,0,1,.31-2.18A27.94,27.94,0,1,0,25,55.726Z" transform="matrix(0.998, 0.07, -0.07, 0.998, 1327.318, 126.951)"/><path class="a" d="M25.009,55.657a28.78,28.78,0,0,0,19-4.94,2.39,2.39,0,0,1,1.89-.37l6.4,2.2a.53.53,0,0,0,.62-.68l-2.41-5.74a2.51,2.51,0,0,1,.31-2.18A27.933,27.933,0,1,0,25,55.707Z" transform="matrix(0.998, 0.07, -0.07, 0.998, 1239.178, 110.455)"/><path class="a" d="M25.039,55.727a28.85,28.85,0,0,0,19-4.94,2.39,2.39,0,0,1,1.89-.37l6.39,2.19a.53.53,0,0,0,.62-.68l-2.42-5.78a2.51,2.51,0,0,1,.31-2.18,27.94,27.94,0,1,0-25.82,11.76Z" transform="matrix(0.998, 0.07, -0.07, 0.998, 1467.168, 109.214)"/><path class="a" d="M25.009,55.687a28.85,28.85,0,0,0,19-4.94,2.38,2.38,0,0,1,1.89-.37l6.42,2.23a.53.53,0,0,0,.62-.68l-2.42-5.78a2.51,2.51,0,0,1,.31-2.18,27.94,27.94,0,1,0-25.82,11.76Z" transform="matrix(0.998, 0.07, -0.07, 0.998, 1397.163, 96.858)"/><path class="a" d="M25.009,55.687a28.85,28.85,0,0,0,19-4.94,2.38,2.38,0,0,1,1.89-.37l6.42,2.23a.53.53,0,0,0,.62-.68l-2.42-5.78a2.51,2.51,0,0,1,.31-2.18,27.94,27.94,0,1,0-25.82,11.76Z" transform="matrix(0.998, 0.07, -0.07, 0.998, 1432.163, 125.858)"/><path class="a" d="M25,55.717a28.84,28.84,0,0,0,19-5,2.45,2.45,0,0,1,1.9-.37l6.39,2.2a.53.53,0,0,0,.62-.68l-2.42-5.78a2.47,2.47,0,0,1,.31-2.19A27.9,27.9,0,1,0,25,55.707Z" transform="matrix(0.998, 0.07, -0.07, 0.998, 1270.299, 108.223)"/><path class="a" d="M24.97,55.737a28.85,28.85,0,0,0,19-4.94,2.39,2.39,0,0,1,1.89-.37l6.39,2.19a.53.53,0,0,0,.62-.68l-2.42-5.78a2.53,2.53,0,0,1,.37-2.22A27.929,27.929,0,1,0,25,55.708Z" transform="matrix(0.998, 0.07, -0.07, 0.998, 1180.359, 98.914)"/><path class="a" d="M24.98,55.707a28.85,28.85,0,0,0,19-4.94,2.35,2.35,0,0,1,1.89-.37l6.4,2.19a.52.52,0,0,0,.61-.68l-2.37-5.78a2.53,2.53,0,0,1,.31-2.19A27.929,27.929,0,1,0,25,55.707Z" transform="matrix(0.998, 0.07, -0.07, 0.998, 1210.069, 42.622)"/><path class="a" d="M24.96,55.656a28.84,28.84,0,0,0,19-4.94,2.41,2.41,0,0,1,1.9-.37l6.39,2.2a.54.54,0,0,0,.62-.68l-2.42-5.79a2.44,2.44,0,0,1,.37-2.13,27.933,27.933,0,1,0-25.83,11.76Z" transform="matrix(0.998, 0.07, -0.07, 0.998, 1279.902, 0)"/><path class="a" d="M24.989,55.706a28.78,28.78,0,0,0,19-4.94,2.41,2.41,0,0,1,1.9-.37l6.39,2.2a.53.53,0,0,0,.62-.68l-2.42-5.79a2.45,2.45,0,0,1,.31-2.18,27.915,27.915,0,1,0-25.8,11.76Z" transform="matrix(0.998, 0.07, -0.07, 0.998, 1363.316, 7.457)"/><path class="a" d="M25.021,55.706a28.84,28.84,0,0,0,19-4.95,2.45,2.45,0,0,1,1.9-.37l6.39,2.2a.53.53,0,0,0,.62-.68l-2.42-5.78a2.47,2.47,0,0,1,.31-2.19,27.93,27.93,0,1,0-25.83,11.77Z" transform="matrix(0.998, 0.07, -0.07, 0.998, 1532.29, 112.396)"/><path class="a" d="M25.03,55.707a28.87,28.87,0,0,0,19-4.94,2.38,2.38,0,0,1,1.89-.37l6.39,2.19a.53.53,0,0,0,.62-.68l-2.42-5.78a2.5,2.5,0,0,1,.31-2.19A27.929,27.929,0,1,0,25,55.707Z" transform="matrix(0.998, 0.07, -0.07, 0.998, 1562.922, 103.392)"/><path class="a" d="M24.994,55.707a28.84,28.84,0,0,0,19-4.94,2.41,2.41,0,0,1,1.9-.37l6.41,2.2a.53.53,0,0,0,.62-.68l-2.42-5.78a2.47,2.47,0,0,1,.31-2.19,27.93,27.93,0,1,0-25.82,11.76Z" transform="matrix(0.998, 0.07, -0.07, 0.998, 1507.517, 35.203)"/><path class="a" d="M25.039,55.727a28.85,28.85,0,0,0,19-4.94,2.38,2.38,0,0,1,1.89-.37l6.39,2.19a.53.53,0,0,0,.62-.68l-2.42-5.78a2.51,2.51,0,0,1,.31-2.18,27.94,27.94,0,1,0-25.82,11.76Z" transform="matrix(0.998, 0.07, -0.07, 0.998, 1861.471, 105.344)"/><path class="a" d="M24.981,55.706a28.84,28.84,0,0,0,19-4.94,2.41,2.41,0,0,1,1.9-.37l6.39,2.19a.53.53,0,0,0,.62-.68l-2.38-5.78a2.47,2.47,0,0,1,.31-2.19,27.93,27.93,0,1,0-25.83,11.77Z" transform="matrix(0.998, 0.07, -0.07, 0.998, 1751.652, 96.162)"/><path class="a" d="M25.021,55.706a28.84,28.84,0,0,0,19-4.94,2.37,2.37,0,0,1,1.9-.37l6.39,2.19a.53.53,0,0,0,.62-.68l-2.42-5.78a2.47,2.47,0,0,1,.31-2.19,27.93,27.93,0,1,0-25.83,11.77Z" transform="matrix(0.998, 0.07, -0.07, 0.998, 1788.144, 110.036)"/><path class="a" d="M25.021,55.706a28.84,28.84,0,0,0,19-4.94,2.37,2.37,0,0,1,1.9-.37l6.39,2.19a.53.53,0,0,0,.62-.68l-2.42-5.78a2.47,2.47,0,0,1,.31-2.19,27.93,27.93,0,1,0-25.83,11.77Z" transform="matrix(0.998, 0.07, -0.07, 0.998, 1708.988, 109.47)"/><path class="a" d="M25.03,55.707a28.84,28.84,0,0,0,19-4.95,2.39,2.39,0,0,1,1.89-.37l6.4,2.2a.53.53,0,0,0,.62-.68l-2.43-5.78a2.53,2.53,0,0,1,.31-2.19A27.929,27.929,0,1,0,25,55.707Z" transform="matrix(0.998, 0.07, -0.07, 0.998, 1890.995, 112.299)"/><path class="a" d="M25.021,55.706a28.84,28.84,0,0,0,19-4.94,2.41,2.41,0,0,1,1.9-.37l6.39,2.19a.53.53,0,0,0,.62-.68l-2.42-5.78a2.47,2.47,0,0,1,.31-2.19,27.93,27.93,0,1,0-25.83,11.77Z" transform="matrix(0.998, 0.07, -0.07, 0.998, 1672.097, 108.287)"/><path class="a" d="M25.039,55.727a28.84,28.84,0,0,0,19-4.94,2.39,2.39,0,0,1,1.89-.37l6.4,2.19a.53.53,0,0,0,.62-.68l-2.43-5.78a2.51,2.51,0,0,1,.31-2.18,27.94,27.94,0,1,0-25.82,11.76Z" transform="matrix(0.998, 0.07, -0.07, 0.998, 1593.109, 94.974)"/><path class="a" d="M25.039,55.727a28.84,28.84,0,0,0,19-4.94,2.39,2.39,0,0,1,1.89-.37l6.4,2.19a.53.53,0,0,0,.62-.68l-2.43-5.78a2.51,2.51,0,0,1,.31-2.18,27.94,27.94,0,1,0-25.82,11.76Z" transform="matrix(0.998, 0.07, -0.07, 0.998, 1642.831, 80.652)"/><path class="a" d="M25.03,55.757a28.86,28.86,0,0,0,19-5,2.43,2.43,0,0,1,1.89-.37l6.4,2.2a.53.53,0,0,0,.61-.68l-2.42-5.78a2.53,2.53,0,0,1,.31-2.19A27.929,27.929,0,1,0,25,55.707Z" transform="matrix(0.998, 0.07, -0.07, 0.998, 1712.668, 37.96)"/><path class="a" d="M25,55.747a28.85,28.85,0,0,0,19-4.94,2.35,2.35,0,0,1,1.89-.37l6.43,2.15a.53.53,0,0,0,.61-.68l-2.42-5.78a2.53,2.53,0,0,1,.31-2.19A27.929,27.929,0,1,0,25,55.707Z" transform="matrix(0.998, 0.07, -0.07, 0.998, 1796.137, 45.48)"/><path class="a" d="M25,55.707a28.87,28.87,0,0,0,19-4.94,2.38,2.38,0,0,1,1.92-.39l6.39,2.19a.53.53,0,0,0,.62-.68l-2.42-5.78a2.5,2.5,0,0,1,.35-2.17A27.953,27.953,0,1,0,25,55.707Z" transform="matrix(0.998, 0.07, -0.07, 0.998, 1831.141, 102.452)"/><path class="a" d="M25.021,55.756a28.84,28.84,0,0,0,19-5,2.41,2.41,0,0,1,1.9-.37l6.39,2.2a.53.53,0,0,0,.62-.68l-2.42-5.78a2.47,2.47,0,0,1,.31-2.19,27.93,27.93,0,1,0-25.83,11.77Z" transform="matrix(0.998, 0.07, -0.07, 0.998, 1507.872, 98.635)"/><path class="a" d="M25.013,55.728a28.84,28.84,0,0,0,19-4.94,2.41,2.41,0,0,1,1.9-.37l6.39,2.19a.53.53,0,0,0,.6-.66l-2.42-5.78a2.44,2.44,0,0,1,.36-2.22,27.94,27.94,0,1,0-25.83,11.78Z" transform="matrix(0.998, 0.07, -0.07, 0.998, 1910.319, 65.246)"/><path class="a" d="M25.037,55.73a28.88,28.88,0,0,0,19-4.94,2.38,2.38,0,0,1,1.89-.37l6.39,2.19a.53.53,0,0,0,.62-.68l-2.42-5.78a2.44,2.44,0,0,1,.31-2.18,27.94,27.94,0,1,0-25.79,11.76Z" transform="matrix(0.998, 0.07, -0.07, 0.998, 988.242, 112.144)"/><path class="a" d="M25.03,55.707a28.84,28.84,0,0,0,19-4.94,2.41,2.41,0,0,1,1.9-.37l6.39,2.19a.53.53,0,0,0,.62-.68l-2.42-5.78a2.47,2.47,0,0,1,.31-2.19A27.935,27.935,0,1,0,25,55.707Z" transform="matrix(0.998, 0.07, -0.07, 0.998, 878.379, 103.001)"/><path class="a" d="M25.03,55.757a28.86,28.86,0,0,0,19-5,2.43,2.43,0,0,1,1.89-.37l6.4,2.2a.52.52,0,0,0,.61-.68l-2.42-5.78a2.53,2.53,0,0,1,.31-2.19A27.929,27.929,0,1,0,25,55.707Z" transform="matrix(0.998, 0.07, -0.07, 0.998, 962.774, 109.093)"/><path class="a" d="M25.03,55.726a28.84,28.84,0,0,0,19-4.94,2.41,2.41,0,0,1,1.9-.37l6.39,2.19a.53.53,0,0,0,.62-.68l-2.42-5.78a2.44,2.44,0,0,1,.31-2.18A27.94,27.94,0,1,0,25,55.726Z" transform="matrix(0.998, 0.07, -0.07, 0.998, 843.866, 110.11)"/><path class="a" d="M25.039,55.727a28.84,28.84,0,0,0,19-4.94,2.39,2.39,0,0,1,1.89-.37l6.4,2.19a.53.53,0,0,0,.62-.68l-2.43-5.78a2.51,2.51,0,0,1,.31-2.18,27.94,27.94,0,1,0-25.82,11.76Z" transform="matrix(0.998, 0.07, -0.07, 0.998, 769.607, 87.496)"/><path class="a" d="M25.03,55.707a28.85,28.85,0,0,0,19-4.94,2.34,2.34,0,0,1,1.89-.37l6.39,2.19a.53.53,0,0,0,.62-.68l-2.42-5.78a2.531,2.531,0,0,1,.31-2.19A27.929,27.929,0,1,0,25,55.707Z" transform="matrix(0.998, 0.07, -0.07, 0.998, 839.44, 44.853)"/><path class="a" d="M25.03,55.707a28.85,28.85,0,0,0,19-4.94,2.38,2.38,0,0,1,1.89-.37l6.39,2.19a.53.53,0,0,0,.62-.68l-2.42-5.78a2.53,2.53,0,0,1,.31-2.19A27.929,27.929,0,1,0,25,55.707Z" transform="matrix(0.998, 0.07, -0.07, 0.998, 922.88, 52.362)"/><path class="a" d="M25,55.676a28.84,28.84,0,0,0,19-4.94,2.41,2.41,0,0,1,1.9-.37l6.42,2.24a.53.53,0,0,0,.62-.68l-2.42-5.78a2.44,2.44,0,0,1,.31-2.18A27.94,27.94,0,1,0,25,55.726Z" transform="matrix(0.998, 0.07, -0.07, 0.998, 1293.904, 111.326)"/><path class="a" d="M25.03,55.726a28.84,28.84,0,0,0,19-4.94,2.41,2.41,0,0,1,1.9-.37l6.39,2.2a.54.54,0,0,0,.62-.68l-2.42-5.79a2.44,2.44,0,0,1,.31-2.18A27.94,27.94,0,1,0,25,55.726Z" transform="matrix(0.998, 0.07, -0.07, 0.998, 1067.077, 80.09)"/></g></g></svg>