<svg xmlns="http://www.w3.org/2000/svg" xmlns:xlink="http://www.w3.org/1999/xlink" width="1920" height="861" viewBox="0 0 1920 861"><defs><style>.a{fill:#284c61;stroke:#707070;}.b{clip-path:url(#a);}.c{fill:#1b3a49;}.d{fill:#eea987;}.e{fill:#ffc5a8;}.f{fill:#d98b52;}.g{fill:#e6881a;}.h{fill:#132c37;}.i{fill:#ce997e;}.j{fill:#bc734f;}.k{fill:#fff;}.l{fill:#d88962;}.m{fill:#e1e1e1;}.n{fill:#1c4054;}.o{fill:#323557;}.p{fill:#d9d9d9;}.q{fill:#a87860;}</style><clipPath id="a"><rect class="a" width="1920" height="861" transform="translate(0 3206)"/></clipPath></defs><g class="b" transform="translate(0 -3206)"><g transform="translate(25 3305.213)"><g transform="translate(44.118 -0.002)"><path class="c" d="M617.978,473.262c-1.932-7.61-48.071-212.223-65.673-236.955S421,182.08,414.788,180.162s-24.732-2.846-29.481-3.311-122.4,35.023-122.4,35.023-122.642,68.7-127.331,79.634S41.769,502.294,44.166,514.128s17.6,56.64,35.2,57.1,94.195-63.291,94.195-63.291,35.7,115.152,38.948,150.355c1.5,15.729-2.337,36.207-6.816,54.962a379.37,379.37,0,0,0,310.238-3.925L501.568,613.82C498.946,596.683,498,574.333,498,574.333S619.88,480.887,617.978,473.262ZM495.216,457.878s-12.134-133.772-8.569-133.772,40.7,96.352,40.7,96.352Z" transform="translate(-44.118 88.074)"/><path class="d" d="M274.189,83.79l-.839,1.094a5.02,5.02,0,0,1,.839-1.094Z" transform="translate(70.041 41.731)"/><path class="e" d="M251.019,308.347c-43.727,16.763-60.849-50.5-60.849-50.5s21.047-8.748,25.871-14.276c1.393-1.6,1.738-4.674,1.5-8.224-.539-8.688-4.494-20.268-4.494-20.268L314.684,84.53c-2.1,3.311-7.265,15.4-7.49,54.3-.345,48.9,15.8,84.8,15.8,84.8C324.541,240.622,294.776,291.57,251.019,308.347Z" transform="translate(28.617 42.1)"/><path class="e" d="M166.2,38.151s-9.527,57.1,4.749,137.982,58.8,86.645,99.168,61.508c37.825-23.564,40.251-78.286,45.959-91.543s29.451-51.636,20.972-105.565C333.013,15.322,183.8-5.141,166.2,38.151Z" transform="translate(15.126 6.462)"/><path class="f" d="M290.2,128.83l-2.457,20.7-19.474,2.846s7.146-48.88,3.925-57.808-56.145,13.931-105.5,3.221c0,0-36.686-61.733,26.964-84.937,83.244-30.32,118.822,2.5,118.822,2.5s25.721,18.56,31.054,36.4C351.646,78.871,324.293,187,324.293,187s1.288-37.016-7.415-40.806S290.2,128.83,290.2,128.83Z" transform="translate(11.683 0.002)"/><path class="g" d="M176.463,200.28,298.311,747.7c-4.854,0-9.647-.12-14.441-.359l-121.159-544.3L156,173.211l13.752-2.771Z" transform="translate(11.6 84.884)"/><path class="g" d="M143.971,225.408l-20.6-92.532a17.527,17.527,0,0,1,14.051-20.837l40.6-8.134a18.425,18.425,0,0,1,21.721,13.662l20.628,92.517a17.512,17.512,0,0,1-14.036,20.837l-40.626,8.149A18.426,18.426,0,0,1,143.971,225.408Z" transform="translate(-4.833 51.547)"/><path class="e" d="M133.46,356.808s33.765-40.881,35.683-47.936,17.137-36.641,29.031-38.544,57.089,12.374,59.471,18.081,19.983,52.82,0,61.853-52.82,7.625-59.92,13.8S170.6,394.992,170.6,394.992,136.321,371.129,133.46,356.808Z" transform="translate(0.375 134.542)"/><path class="e" d="M304.169,446s-22.47,24.972-28.912,23.189-22.051-6.411-26.724-5.707-31.458,23.189-35.008,28.912-2.142,16.059-7.49,23.968-2.5,35.682,9.992,41.03,43.158,3.565,50.663-2.5S299.525,513.5,303.45,511s32.836-21.766,32.836-21.766S318.789,454.838,304.169,446Z" transform="translate(35.238 222.115)"/><path class="h" d="M377.028,379.853l-95.618,101.4,91.6-147.764Z" transform="translate(74.055 166.084)"/><path class="h" d="M169.313,364.4,130.53,414.6l11.07,36.926Z" transform="translate(-1.085 181.477)"/><path class="e" d="M245.652,93.439c.315-9.243,14.7-27.623,26.11-17s6.127,55.1-6.936,59.576S244.828,117.826,245.652,93.439Z" transform="translate(56.214 36.472)"/><path class="i" d="M277.394,140.81c-8.838,47.517-50.093,62.332-67.41,66.512-.539-8.688-4.494-20.268-4.494-20.268C255.194,187.413,277.394,140.81,277.394,140.81Z" transform="translate(36.246 70.128)"/></g></g><g transform="translate(1331.368 3486.809) rotate(-11)"><path class="j" d="M146.28,178.083,131.99,127.94l-21.05,31.587L128.6,199.878Z" transform="translate(212.608 28.451)"/><path class="k" d="M73.8,270.367s152.066,26.269,152.066,22.284-18.422-117.986-18.422-117.986,21.49-6.87,24.57-6.5,67.538,159.609,61.4,166.637-111.568,14.815-136.909,12.713-88.159-20.17-98.244-33.775S73.8,270.367,73.8,270.367Z" transform="translate(132.324 37.394)"/><path class="l" d="M366.165,23.347s25,10.073,33,61.12c0,0,17.468,36.868,25.67,41.562s-12.591,14.6-13.2,20.194,2.86,29.606-7.53,48.383-99.014-7.567-110.664-29.435-97.633-92.01-17.358-124.782S366.165,23.347,366.165,23.347Z" transform="translate(-228.311 4.35)"/><path class="m" d="M208.9,86.02,68.35,99.515l3.508,27.345L212.507,106.8Z" transform="translate(198.442 19.128)"/><path class="n" d="M53.38,87.86l19.314.538,2.2,12.016-18.642,4.022Z" transform="translate(354.355 19.538)"/><path class="n" d="M181.547,128.783a31.587,31.587,0,1,0,15.524-41.867,31.587,31.587,0,0,0-15.524,41.867Z" transform="translate(34.247 18.684)"/><path class="l" d="M221.67,199.769s30.364,19.082,46.06,29.338c12.432,8.166,86.106,66.193,87.267,67.1-.941-1.222-51.341-66.621-68.3-83.319-8.386-8.263-11.588-19.827-12.737-28.946a73.421,73.421,0,0,1-.489-13.7,3.85,3.85,0,0,1,.061-.77s-54.494-25.45-50.436-14.791S221.67,199.769,221.67,199.769Z" transform="translate(-131.465 33.817)"/><path class="k" d="M228.584,583.255a310.489,310.489,0,0,0,166.857.77c-4.572-40.144-10.06-108.794-9.095-127.129.733-13.642,3.019-33.433,10.183-62.245.293-1.222.587-2.347.892-3.545a93.929,93.929,0,0,0,2.225-26.66c-.147-3.667-.416-7.237-.733-10.5-1.222-12.627-8.19-18.849-11.686-25.988-15.133-30.914-35.975-40.339-35.975-40.339s-112.461-97.792-133.327-96.5c0,0-35.1,32.895-35.975,91.68s20.61,164.877,50.864,230.214C241.688,532.184,237.52,555.947,228.584,583.255Z" transform="translate(-127.695 42.5)"/><path class="o" d="M408.06,60.239s-4.6,44.41-51.646,52.967-27.443,63.332-27.443,63.332-40.645,10.024-49.2-34.386S259.673,40.84,311.784,27.675,417.607,10.9,408.06,60.239Z" transform="translate(-247.568 4.264)"/><path class="o" d="M433.837,56.071s3.582-23.666-30.988-44.85C363.073-13.166,290.389,4.645,279.5,41.158s-8.227,86.179,0,136.187,19.082,70.056,2.958,116.776-18.067,165.794,39.471,173.03-.318-73.258,6.2-106.349,20.781-95.6,36.892-126.97-17.957-68.136-14.4-87.9S259.181,78.013,433.837,56.071Z" transform="translate(-272.294 -0.002)"/><path class="j" d="M173.195,111.965s-4.657-14.877-6.528-19.265,7.053-4.388,10.109.379S173.195,111.965,173.195,111.965Z" transform="translate(113.498 19.892)"/><path class="l" d="M174.608,83.114s3.19,6.112,3.533,9.486c0,0,.232,6.259.611,10.708.134,1.418.269,2.64.428,3.435.648,3.276,2.9,10.28,2.628,18.617s-3.667,37.5-3.667,37.5l-21.368.061-16.832.33s-21.575-39.056-22.077-46.879c0-.758-.073-1.516,0-2.225.11-6.65,2.518-11.454,2.9-14.925.147-1.222,2.335-13.764,5.171-15.451,3.924-2.335,7.506-1.993,10.17-.122,0,0,7.884-4.156,13.581-2.213,0,0,7.151-4.119,13.74.685C163.4,82.124,171.075,78.945,174.608,83.114Z" transform="translate(168.633 17.744)"/><path class="l" d="M120.781,150.163s1.748,64.286,0,78.319,38.322,1.65,38.322,1.65-2.824-55.13-.122-80.36S120.781,150.163,120.781,150.163Z" transform="translate(187.818 30.835)"/><path class="l" d="M353.9,95.746c-2.885-8.471-25.878-20.17-29.338-4.388S336.409,130.829,350,130.4C349.953,130.4,365.71,130.4,353.9,95.746Z" transform="translate(-259.932 18.583)"/><path class="p" d="M182.418,320.544c10.4,9.914,107.2,45.681,107.2,45.681h0c.293-1.149.6-2.335.892-3.521,2.2-8.557,2.579-18.018,2.225-26.673C261.2,329.284,175.157,313.625,182.418,320.544Z" transform="translate(-20.813 70.902)"/><path class="k" d="M99.373,283.182c13.263-23.36,50.436-12.505,85.311-1.956,67.99,20.561,117.35,39.019,119.954,32.883s.88-131.151,2.2-137.728c0,0,36.4-.44,45.608,8.337,0,0,25.976,169.3,27.724,177.639s2.983,30.694-72.024,22.37-195.18-43.432-207.893-60.093S97.161,287.069,99.373,283.182Z" transform="translate(-0.832 39.224)"/><path class="q" d="M288,157.55s17.957,17.5,42,25.218h0a73.418,73.418,0,0,1-.489-13.7S302.925,164.334,288,157.55Z" transform="translate(-187.552 35.036)"/></g></g></svg>